<?xml version="1.0" standalone="no"?>
<!DOCTYPE svg PUBLIC "-//W3C//DTD SVG 20010904//EN"
 "http://www.w3.org/TR/2001/REC-SVG-20010904/DTD/svg10.dtd">
<svg version="1.0" xmlns="http://www.w3.org/2000/svg"
 width="128.000000pt" height="128.000000pt" viewBox="0 0 128.000000 128.000000"
 preserveAspectRatio="xMidYMid meet">
<metadata>
Created by potrace 1.10, written by Peter Selinger 2001-2011
</metadata>
<g transform="translate(0.000000,128.000000) scale(0.100000,-0.100000)"
fill="#000000" stroke="none">
<path d="M477 1245 c-182 -46 -325 -187 -372 -366 -37 -139 -25 -300 33 -423
27 -57 139 -193 150 -182 2 3 -20 32 -51 65 -239 258 -169 698 135 852 174 88
412 74 569 -34 34 -23 76 -59 93 -80 29 -36 31 -46 37 -140 l6 -102 1 102 c2
100 2 102 -31 145 -43 57 -142 122 -225 149 -87 28 -262 35 -345 14z"/>
<path d="M490 1214 c-126 -33 -224 -103 -292 -208 -101 -157 -110 -375 -22
-547 29 -58 133 -170 140 -151 3 6 9 12 13 12 5 0 -2 -21 -15 -47 -48 -94 -23
-195 56 -235 107 -54 252 18 312 153 7 16 19 29 26 29 7 0 35 9 62 21 l48 21
21 -21 c19 -19 33 -21 126 -21 156 0 147 -20 143 300 -2 190 -6 262 -15 271
-7 7 -30 12 -50 12 -35 -1 -36 0 -18 13 17 13 20 29 23 114 l4 99 -54 55
c-123 122 -334 176 -508 130z m258 -39 c85 -20 153 -57 213 -114 l50 -48 -3
-84 -3 -83 -80 -1 -80 0 -3 28 c-4 32 -69 80 -132 97 -210 59 -371 -180 -265
-395 l24 -49 -36 -35 c-20 -19 -49 -63 -66 -99 l-30 -64 -44 44 c-92 89 -133
196 -133 344 0 107 22 188 71 266 104 162 314 241 517 193z m8 -270 c27 -16
44 -34 49 -52 3 -15 14 -33 23 -40 9 -7 12 -13 5 -13 -6 0 -9 -9 -6 -21 6 -20
11 -21 122 -18 l116 4 0 -250 0 -250 -100 0 c-98 0 -100 1 -103 24 -5 34 14
49 22 17 10 -40 22 -31 18 14 -4 34 -8 40 -27 40 -14 0 -25 -7 -28 -19 -3 -12
-31 -33 -68 -52 -35 -17 -70 -39 -77 -48 -16 -20 -13 -11 20 59 15 30 29 73
31 95 4 40 -18 106 -44 129 -16 14 -89 40 -95 34 -7 -8 -7 -82 0 -105 10 -31
-2 -63 -26 -72 -19 -7 -19 -8 -4 -24 16 -15 15 -20 -4 -66 l-22 -49 -53 13
c-47 10 -55 10 -60 -3 -3 -8 -8 -12 -12 -8 -4 3 9 35 28 71 25 48 38 63 50 60
10 -3 19 1 23 11 5 13 2 15 -15 11 -16 -4 -24 1 -35 30 -17 40 -15 89 4 85 14
-2 16 14 3 22 -5 3 -11 20 -14 38 -2 18 -10 59 -16 91 -41 198 130 339 295
242z m-50 -443 c7 -36 -5 -80 -50 -184 -23 -53 -11 -47 18 10 25 46 25 46 20
12 -7 -44 -24 -80 -38 -80 -6 0 -20 -15 -30 -34 -23 -42 -70 -89 -93 -92 -10
-1 -38 -10 -62 -19 -50 -18 -82 -14 -111 15 -21 21 -28 46 -9 34 6 -3 3 5 -6
20 -13 19 -16 39 -13 71 6 49 72 195 107 235 l21 25 -6 -40 c-4 -22 -11 -48
-16 -58 -5 -9 -7 -21 -4 -26 3 -4 -13 -43 -34 -85 -22 -43 -40 -87 -40 -97 0
-25 70 -58 105 -51 44 8 115 116 159 238 27 76 32 110 16 134 -5 9 -5 19 1 27
18 21 57 -13 65 -55z m-205 -248 c28 -5 39 -3 39 6 0 8 3 10 7 7 11 -12 -48
-66 -85 -78 -30 -10 -37 -9 -53 8 -19 18 -17 59 1 48 4 -3 11 2 14 11 4 10 12
14 22 10 9 -3 33 -9 55 -12z"/>
<path d="M478 1146 c-123 -43 -201 -117 -260 -243 -28 -58 -33 -82 -36 -164
-3 -71 0 -112 13 -155 19 -66 70 -157 109 -193 42 -39 42 -15 1 30 -81 90
-124 237 -104 359 33 205 184 347 404 379 l60 9 -60 1 c-40 0 -83 -7 -127 -23z"/>
<path d="M634 1001 c3 -4 27 -10 53 -13 78 -8 138 -43 185 -109 16 -24 16 -24
9 11 -11 59 -120 120 -214 120 -21 0 -36 -4 -33 -9z"/>
<path d="M575 898 c-60 -33 -90 -80 -99 -153 l-5 -50 13 53 c22 83 62 133 121
151 20 6 24 9 10 10 -11 0 -29 -5 -40 -11z"/>
<path d="M632 858 c-22 -16 -50 -57 -88 -131 -75 -147 -64 -167 14 -25 60 109
64 115 118 141 53 26 57 27 87 12 l32 -15 -24 20 c-32 28 -97 27 -139 -2z"/>
<path d="M716 788 c-8 -13 -29 -56 -46 -96 -32 -76 -36 -127 -10 -127 11 0 16
16 20 65 4 58 6 61 13 31 4 -18 7 -46 7 -61 0 -31 9 -43 24 -31 6 4 36 11 66
14 30 3 49 3 42 0 -15 -6 -24 -23 -51 -92 -27 -66 -12 -66 51 0 41 42 49 55
46 82 l-3 32 -80 5 c-55 3 -80 9 -79 18 1 6 2 33 3 60 l1 47 150 0 c83 0 150
3 150 8 0 4 -43 7 -95 7 -92 0 -96 1 -127 30 -37 36 -62 38 -82 8z m136 -235
c-6 -10 -20 -27 -33 -38 -24 -21 -20 -10 14 38 21 30 35 31 19 0z"/>
<path d="M597 676 c-14 -30 -28 -65 -31 -78 -3 -12 10 10 29 51 19 41 33 76
31 78 -2 2 -15 -20 -29 -51z"/>
<path d="M470 292 c0 -12 79 -32 85 -22 3 4 -7 11 -23 14 -15 4 -35 9 -44 12
-10 3 -18 1 -18 -4z"/>
<path d="M965 290 l-50 -7 53 -1 c29 -1 52 2 52 8 0 6 -1 9 -2 8 -2 0 -25 -4
-53 -8z"/>
<path d="M1101 804 l24 -26 0 -264 c0 -329 10 -309 -158 -309 -61 0 -123 4
-137 8 -24 8 -24 8 -5 -8 30 -24 266 -18 292 8 16 16 18 44 21 287 2 229 1
274 -13 300 -8 16 -23 30 -32 30 -13 0 -12 -5 8 -26z"/>
</g>
</svg>
