<?xml version="1.0" standalone="no"?>
<!DOCTYPE svg PUBLIC "-//W3C//DTD SVG 20010904//EN"
 "http://www.w3.org/TR/2001/REC-SVG-20010904/DTD/svg10.dtd">
<svg version="1.0" xmlns="http://www.w3.org/2000/svg"
 width="128.000000pt" height="128.000000pt" viewBox="0 0 128.000000 128.000000"
 preserveAspectRatio="xMidYMid meet">
<metadata>
Created by potrace 1.16, written by Peter Selinger 2001-2019
</metadata>
<g transform="translate(0.000000,128.000000) scale(0.100000,-0.100000)"
fill="#000000" stroke="none">
<path d="M558 1170 c-78 -14 -143 -39 -205 -79 -65 -42 -154 -134 -175 -181
-7 -16 -20 -30 -29 -30 -9 0 -19 -6 -22 -14 -14 -35 -60 -98 -66 -90 -3 5 -17
10 -30 12 l-24 2 5 -117 c4 -84 11 -133 25 -170 16 -40 19 -67 15 -121 -2 -39
0 -84 6 -101 10 -28 9 -29 -7 -19 -28 17 -51 3 -51 -30 0 -23 8 -35 37 -54
102 -67 241 -91 366 -64 65 15 85 15 137 5 77 -15 196 -6 272 20 113 39 230
134 280 227 13 24 28 42 35 40 7 -3 29 22 49 56 21 34 40 56 42 50 2 -7 15
-12 29 -12 l26 0 -6 118 c-3 73 -12 136 -23 167 -19 56 -58 124 -81 142 -11 9
-12 16 -4 32 18 33 13 112 -9 149 -35 58 -74 74 -165 69 -49 -2 -93 -10 -113
-21 -29 -15 -37 -15 -91 -1 -78 20 -164 26 -223 15z m205 -35 c77 -20 150 -58
202 -106 44 -40 61 -49 52 -26 -3 8 1 14 9 14 8 0 14 -5 14 -10 0 -6 -71 -81
-158 -169 -112 -111 -166 -158 -182 -158 -12 0 -38 14 -57 30 -38 34 -86 40
-131 16 -15 -8 -95 -83 -179 -168 -123 -125 -153 -160 -158 -189 -12 -66 48
-139 115 -139 39 0 96 -28 83 -41 -14 -14 -77 -23 -108 -15 -14 4 -46 25 -71
48 -52 48 -69 96 -55 159 8 37 33 66 182 215 145 145 179 174 214 183 55 14
104 0 150 -43 19 -19 37 -30 40 -26 9 14 -73 79 -114 90 -82 22 -108 6 -295
-178 -103 -102 -176 -182 -187 -207 -28 -60 -25 -114 10 -162 65 -90 136 -119
216 -89 32 13 49 15 62 7 16 -8 12 -12 -27 -30 -54 -25 -117 -27 -168 -6 -43
18 -117 87 -139 130 -23 43 -20 131 5 180 25 49 343 366 392 391 44 22 134 23
175 1 17 -8 46 -31 64 -51 19 -20 40 -36 45 -36 6 0 -14 25 -44 55 -51 52 -54
69 -9 44 16 -8 27 -4 61 25 43 38 104 70 151 82 l27 6 -31 -33 c-16 -18 -37
-46 -46 -63 -12 -25 -2 -18 48 31 l63 62 -20 22 c-10 12 -46 39 -78 61 -33 21
-55 38 -50 38 12 0 70 -36 119 -73 27 -21 34 -24 21 -9 -55 64 -183 124 -292
136 -168 20 -363 -72 -455 -215 -18 -27 -34 -47 -36 -45 -8 8 51 91 97 136
120 117 311 167 473 125z m352 -122 c-6 -31 -34 -65 -173 -205 -162 -164 -228
-214 -269 -206 -13 3 -3 14 37 40 66 43 361 339 385 386 21 42 30 35 20 -15z
m-569 -44 c-18 -21 -26 -42 -26 -67 0 -34 -3 -38 -44 -55 -30 -12 -83 -57
-165 -138 -128 -126 -138 -128 -85 -14 50 107 149 207 266 271 78 42 87 42 54
3z m658 -149 c32 -70 46 -141 46 -226 0 -67 -5 -75 -25 -47 -11 15 -18 9 -55
-50 -23 -37 -43 -67 -45 -67 -2 0 6 28 17 62 32 104 22 273 -24 373 -8 19 -8
28 2 40 12 14 15 13 35 -5 13 -12 35 -48 49 -80z m-90 3 c11 -30 20 -86 23
-149 6 -114 -8 -180 -59 -276 -62 -116 -214 -229 -328 -243 -43 -5 -42 -4 15
13 68 21 150 61 141 69 -2 3 -20 -4 -38 -15 -40 -24 -132 -52 -167 -51 -15 1
-5 5 23 11 278 53 455 359 357 617 -10 28 -16 51 -11 51 20 0 45 -119 45 -218
0 -75 2 -94 9 -70 13 49 1 175 -23 243 -24 68 -23 65 -13 65 4 0 16 -21 26
-47z m-975 -33 c-16 -52 -20 -86 -17 -165 3 -90 1 -103 -18 -128 -12 -15 -24
-27 -27 -27 -3 0 -13 24 -23 53 -18 55 -28 237 -12 237 4 0 8 -7 8 -15 0 -31
22 -13 62 50 23 36 43 64 44 62 2 -2 -6 -32 -17 -67z m357 -149 c8 -21 29 -51
46 -66 26 -23 29 -32 24 -61 -10 -49 7 -74 50 -74 20 0 49 8 65 17 24 15 29
24 29 58 0 38 2 41 46 59 25 10 59 30 75 43 l29 25 0 -91 0 -91 26 0 c30 0 60
14 92 43 33 30 27 11 -14 -44 -39 -54 -141 -149 -159 -149 -7 0 -20 9 -31 21
-40 44 -53 44 -100 -2 l-43 -42 -55 11 c-77 16 -149 48 -182 83 l-28 29 27 0
27 0 0 107 c0 102 1 108 27 135 15 15 28 28 30 28 2 0 10 -18 19 -39z"/>
</g>
</svg>
